# xmcd CD database file
#
# Track frame offsets:
#	182
#	10860
#	21085
#	32155
#	44135
#	57030
#	71722
#	83095
#	93672
#	106315
#	120057
#	131492
#	144550
#	158017
#	171535
#	180077
#	191582
#	202367
#	215130
#	227510
#
# Disc length: 3221 seconds
#
# Revision: 1
# Processed by: cddbd v1.5.2PL0 Copyright (c) Steve Scherf et al.
# Submitted via: jetAudio 7
#
DISCID=170c9314
DTITLE=Statler Brothers - Decades Of Hits Disc 1
DYEAR=1997
DGENRE=Country
TTITLE0=Flowers On The Wall
TTITLE1=You Can't Have Your Kate And Edith Too
TTITLE2=Bed Of Rose's
TTITLE3=Class Of '57
TTITLE4=I'll Go To My Grave Loving You
TTITLE5=Carry Me Back
TTITLE6=All American Girl
TTITLE7=Thank God I've Got You
TTITLE8=I Was There
TTITLE9=The Movies
TTITLE10=Your Picture In The Paper
TTITLE11=Do You Remember These
TTITLE12=Pictures
TTITLE13=You Can't Go Home
TTITLE14=Whatever Happened To Randolph Scott
TTITLE15=Silver Medals And Sweet Memories
TTITLE16=Some I Wrote
TTITLE17=New York City
TTITLE18=Monday Morning Secretary
TTITLE19=Thank You World
EXTD=
EXTT0=
EXTT1=
EXTT2=
EXTT3=
EXTT4=
EXTT5=
EXTT6=
EXTT7=
EXTT8=
EXTT9=
EXTT10=
EXTT11=
EXTT12=
EXTT13=
EXTT14=
EXTT15=
EXTT16=
EXTT17=
EXTT18=
EXTT19=
PLAYORDER=
